<svg viewBox="0 0 151 151" fill="none" xmlns="http://www.w3.org/2000/svg">
<g>
<rect width="151" height="151" rx="30" fill="#FF4346"/>
<path d="M30 21H47.1837C52.8435 21 56.7135 26.7162 54.6115 31.9711L39 71L79.3345 30.6655C85.5232 24.4768 93.9169 21 102.669 21H139L89 71H129" stroke="black" stroke-width="5" stroke-linecap="round" stroke-linejoin="round"/>
<path d="M49 71L69 51" stroke="black" stroke-width="5" stroke-linecap="round"/>
<path d="M77 48H68L70.3172 45.7931C74.222 42.0743 79.4077 40 84.8 40H89L83.2069 45.5172C81.5334 47.111 79.311 48 77 48Z" fill="black"/>
<path d="M97 40H88L93.7931 34.4828C95.4666 32.889 97.689 32 100 32H109L103.207 37.5172C101.533 39.111 99.311 40 97 40Z" fill="black" fill-opacity="0.2"/>
<path d="M104 48H93L100.141 41.1986C100.949 40.4292 102.022 40 103.138 40H104C107.611 40 109.373 44.4063 106.759 46.8966C106.015 47.6049 105.027 48 104 48Z" fill="black" fill-opacity="0.1"/>
<path d="M92.8 32H83C88.3923 26.8645 95.5535 24 103 24H104L97.6276 30.069C96.326 31.3086 94.5974 32 92.8 32Z" fill="black" fill-opacity="0.1"/>
<path d="M80.8983 56H80.5799C77.4818 56 75.9696 52.2194 78.213 50.0828C79.6169 48.7458 81.4814 48 83.4201 48H93L87.2805 53.4471C85.5598 55.0859 83.2746 56 80.8983 56Z" fill="black" fill-opacity="0.2"/>
<path d="M118.2 32H110L115.214 27.0345C117.259 25.0865 119.975 24 122.8 24H131L125.786 28.9655C123.741 30.9135 121.025 32 118.2 32Z" fill="black" fill-opacity="0.1"/>
<path d="M58.9391 82.4504L10 131H40.3286L57.4738 114.75H71.2736L82.1462 105.835H65.4192L82.1462 89.75H114.273C115.93 89.75 117.273 91.0931 117.273 92.75V131H134V81H107.272H62.4605C61.1413 81 59.8756 81.5213 58.9391 82.4504Z" stroke="black" stroke-width="5" stroke-linecap="round" stroke-linejoin="round"/>
</g>
</svg>
