<svg viewBox="0 0 345.192 202.213" fill="none" xmlns="http://www.w3.org/2000/svg">
<g>
<path d="M10.2128 192L91.9149 110.298" stroke="black" stroke-width="20.4255" stroke-linecap="round"/>
<path d="M124.596 98.0425H87.8298L97.296 89.0271C113.247 73.8353 134.431 65.3617 156.46 65.3617H173.617L149.952 87.9002C143.115 94.411 134.036 98.0425 124.596 98.0425Z" fill="black"/>
<path d="M206.298 65.3617H169.532L193.197 42.8232C200.034 36.3124 209.113 32.6808 218.553 32.6808H255.319L231.654 55.2194C224.817 61.7301 215.738 65.3617 206.298 65.3617Z" fill="black" fill-opacity="0.2"/>
<path d="M234.894 98.0425H189.957L219.131 70.258C222.432 67.1149 226.815 65.3617 231.373 65.3617H234.895C249.645 65.3617 256.844 83.362 246.163 93.5348C243.125 96.4285 239.089 98.0425 234.894 98.0425Z" fill="black" fill-opacity="0.5"/>
<path d="M189.14 32.6809H149.106C171.135 11.7017 200.389 0 230.809 0H234.894L208.862 24.7924C203.544 29.8563 196.483 32.6809 189.14 32.6809Z" fill="black" fill-opacity="0.5"/>
<path d="M140.521 130.723H139.22C126.564 130.723 120.386 115.279 129.551 106.551C135.286 101.089 142.903 98.0425 150.823 98.0425H189.957L166.593 120.295C159.563 126.989 150.228 130.723 140.521 130.723Z" fill="black" fill-opacity="0.2"/>
<path d="M292.902 32.6809H259.404L280.703 12.3962C289.059 4.43856 300.155 0 311.694 0H345.192L323.893 20.2847C315.537 28.2423 304.441 32.6809 292.902 32.6809Z" fill="black" fill-opacity="0.5"/>
</g>
</svg>
