<svg viewBox="0 0 182 78" fill="none" xmlns="http://www.w3.org/2000/svg">
<g>
<path d="M2.5 2.5H19.6837C25.3435 2.5 29.2135 8.21621 27.1115 13.4711L11.5 52.5L51.8345 12.1655C58.0232 5.97678 66.4169 2.5 75.169 2.5H111.5L61.5 52.5H101.5" stroke="black" stroke-width="5" stroke-linecap="round" stroke-linejoin="round"/>
<path d="M21.5 52.5L41.5 32.5" stroke="black" stroke-width="5" stroke-linecap="round"/>
<path d="M49.5 29.5H40.5L42.8172 27.2931C46.722 23.5743 51.9077 21.5 57.3 21.5H61.5L55.7069 27.0172C54.0334 28.611 51.811 29.5 49.5 29.5Z" fill="black"/>
<path d="M69.5 21.5H60.5L66.2931 15.9828C67.9666 14.389 70.189 13.5 72.5 13.5H81.5L75.7069 19.0172C74.0334 20.611 71.811 21.5 69.5 21.5Z" fill="black" fill-opacity="0.2"/>
<path d="M76.5 29.5H65.5L72.6415 22.6986C73.4494 21.9292 74.5224 21.5 75.6381 21.5H76.5003C80.1111 21.5 81.8734 25.9063 79.2586 28.3966C78.5149 29.1049 77.5271 29.5 76.5 29.5Z" fill="black" fill-opacity="0.5"/>
<path d="M65.3 13.5H55.5C60.8923 8.36447 68.0535 5.5 75.5 5.5H76.5L70.1276 11.569C68.826 12.8086 67.0974 13.5 65.3 13.5Z" fill="black" fill-opacity="0.5"/>
<path d="M53.3983 37.5H53.0799C49.9818 37.5 48.4696 33.7194 50.713 31.5828C52.1169 30.2458 53.9814 29.5 55.9201 29.5H65.5L59.7805 34.9471C58.0598 36.5859 55.7746 37.5 53.3983 37.5Z" fill="black" fill-opacity="0.2"/>
<path d="M90.7 13.5H82.5L87.7138 8.53448C89.7592 6.58652 92.4755 5.5 95.3 5.5H103.5L98.2862 10.4655C96.2408 12.4135 93.5245 13.5 90.7 13.5Z" fill="black" fill-opacity="0.5"/>
<path d="M88.357 42.9044L55.5 75.5H85.8286L102.974 59.25H116.774L127.646 50.3346H110.919L127.646 34.25H159.773C161.43 34.25 162.773 35.5931 162.773 37.25V75.5H179.5V25.5H152.772H130.614C114.784 25.5 99.5951 31.7558 88.357 42.9044Z" stroke="black" stroke-width="5" stroke-linecap="round" stroke-linejoin="round"/>
</g>
</svg>
