<svg width="117.779" height="204" viewBox="0 0 117.779 204" xmlns="http://www.w3.org/2000/svg" fill="none">
  <path d="M -117.78 -136 L -147.22 -119 L -147.22 -85 L -117.78 -68 M -58.89 -136 L -88.33 -119 L -88.33 -85 L -58.89 -68 M 0 -136 L -29.44 -119 L -29.44 -85 L 0 -68 M 58.89 -136 L 29.44 -119 L 29.44 -85 L 58.89 -68 M 117.78 -136 L 88.33 -119 L 88.33 -85 L 117.78 -68 M 176.67 -136 L 147.22 -119 L 147.22 -85 L 176.67 -68 M 235.56 -136 L 206.11 -119 L 206.11 -85 L 235.56 -68 M -88.33 -85 L -117.78 -68 L -117.78 -34 L -88.33 -17 M -29.44 -85 L -58.89 -68 L -58.89 -34 L -29.44 -17 M 29.44 -85 L 0 -68 L 0 -34 L 29.44 -17 M 88.33 -85 L 58.89 -68 L 58.89 -34 L 88.33 -17 M 147.22 -85 L 117.78 -68 L 117.78 -34 L 147.22 -17 M 206.11 -85 L 176.67 -68 L 176.67 -34 L 206.11 -17 M 265 -85 L 235.56 -68 L 235.56 -34 L 265 -17 M -117.78 -34 L -147.22 -17 L -147.22 17 L -117.78 34 M -58.89 -34 L -88.33 -17 L -88.33 17 L -58.89 34 M 0 -34 L -29.44 -17 L -29.44 17 L 0 34 M 58.89 -34 L 29.44 -17 L 29.44 17 L 58.89 34 M 117.78 -34 L 88.33 -17 L 88.33 17 L 117.78 34 M 176.67 -34 L 147.22 -17 L 147.22 17 L 176.67 34 M 235.56 -34 L 206.11 -17 L 206.11 17 L 235.56 34 M -88.33 17 L -117.78 34 L -117.78 68 L -88.33 85 M -29.44 17 L -58.89 34 L -58.89 68 L -29.44 85 M 29.44 17 L 0 34 L 0 68 L 29.44 85 M 88.33 17 L 58.89 34 L 58.89 68 L 88.33 85 M 147.22 17 L 117.78 34 L 117.78 68 L 147.22 85 M 206.11 17 L 176.67 34 L 176.67 68 L 206.11 85 M 265 17 L 235.56 34 L 235.56 68 L 265 85 M -117.78 68 L -147.22 85 L -147.22 119 L -117.78 136 M -58.89 68 L -88.33 85 L -88.33 119 L -58.89 136 M 0 68 L -29.44 85 L -29.44 119 L 0 136 M 58.89 68 L 29.44 85 L 29.44 119 L 58.89 136 M 117.78 68 L 88.33 85 L 88.33 119 L 117.78 136 M 176.67 68 L 147.22 85 L 147.22 119 L 176.67 136 M 235.56 68 L 206.11 85 L 206.11 119 L 235.56 136 M -88.33 119 L -117.78 136 L -117.78 170 L -88.33 187 M -29.44 119 L -58.89 136 L -58.89 170 L -29.44 187 M 29.44 119 L 0 136 L 0 170 L 29.44 187 M 88.33 119 L 58.89 136 L 58.89 170 L 88.33 187 M 147.22 119 L 117.78 136 L 117.78 170 L 147.22 187 M 206.11 119 L 176.67 136 L 176.67 170 L 206.11 187 M 265 119 L 235.56 136 L 235.56 170 L 265 187 M -117.78 170 L -147.22 187 L -147.22 221 L -117.78 238 M -58.89 170 L -88.33 187 L -88.33 221 L -58.89 238 M 0 170 L -29.44 187 L -29.44 221 L 0 238 M 58.89 170 L 29.44 187 L 29.44 221 L 58.89 238 M 117.78 170 L 88.33 187 L 88.33 221 L 117.78 238 M 176.67 170 L 147.22 187 L 147.22 221 L 176.67 238 M 235.56 170 L 206.11 187 L 206.11 221 L 235.56 238 M -88.33 221 L -117.78 238 L -117.78 272 L -88.33 289 M -29.44 221 L -58.89 238 L -58.89 272 L -29.44 289 M 29.44 221 L 0 238 L 0 272 L 29.44 289 M 88.33 221 L 58.89 238 L 58.89 272 L 88.33 289 M 147.22 221 L 117.78 238 L 117.78 272 L 147.22 289 M 206.11 221 L 176.67 238 L 176.67 272 L 206.11 289 M 265 221 L 235.56 238 L 235.56 272 L 265 289 M -117.78 272 L -147.22 289 L -147.22 323 L -117.78 340 M -58.89 272 L -88.33 289 L -88.33 323 L -58.89 340 M 0 272 L -29.44 289 L -29.44 323 L 0 340 M 58.89 272 L 29.44 289 L 29.44 323 L 58.89 340 M 117.78 272 L 88.33 289 L 88.33 323 L 117.78 340 M 176.67 272 L 147.22 289 L 147.22 323 L 176.67 340 M 235.56 272 L 206.11 289 L 206.11 323 L 235.56 340" stroke="#C2410C" stroke-width="1.6" stroke-opacity="0.8" stroke-linejoin="round" stroke-linecap="round"></path>
</svg>