<svg width="512" height="516" viewBox="0 0 512 516" fill="none" xmlns="http://www.w3.org/2000/svg">
<path d="M0 204.8C0 108.256 0 59.9845 29.9923 29.9923C59.9845 0 108.256 0 204.8 0H307.2C403.744 0 452.015 0 482.008 29.9923C512 59.9845 512 108.256 512 204.8V307.2C512 403.744 512 452.015 482.008 482.008C452.015 512 403.744 512 307.2 512H204.8C108.256 512 59.9845 512 29.9923 482.008C0 452.015 0 403.744 0 307.2V204.8Z" fill="#F5845E"/>
<g clip-path="url(#clip0_51_201)">
<path d="M-25.8484 13.7209L-79.5897 44.7209V106.721L-25.8484 137.721M-25.8484 137.721L27.9112 106.721M-25.8484 137.721V199.721M81.6525 13.7209L27.9112 44.7209V106.721M27.9112 106.721L81.6525 137.721M81.6525 137.721L135.412 106.721M81.6525 137.721V199.721M189.153 13.7209L135.412 44.7209V106.721M135.412 106.721L189.153 137.721M189.153 137.721L242.895 106.721M189.153 137.721V199.721M296.654 13.7209L242.895 44.7209V106.721M242.895 106.721L296.654 137.721M296.654 137.721L350.396 106.721M296.654 137.721V199.721M404.155 13.7209L350.396 44.7209V106.721M350.396 106.721L404.155 137.721M404.155 137.721L457.897 106.721M404.155 137.721V199.721M511.656 13.7209L457.897 44.7209V106.721M457.897 106.721L511.656 137.721M511.656 137.721L565.398 106.721M511.656 137.721V199.721M619.157 13.7209L565.398 44.7209V106.721M565.398 106.721L619.157 137.721M619.157 137.721L672.898 106.721M619.157 137.721V199.721M-25.8484 199.721L27.9112 230.721M-25.8484 199.721L-79.5897 230.721V292.721L-25.8484 323.721M27.9112 230.721L81.6525 199.721M27.9112 230.721V292.721M81.6525 199.721L135.412 230.721M135.412 230.721L189.153 199.721M135.412 230.721V292.721M189.153 199.721L242.895 230.721M242.895 230.721L296.654 199.721M242.895 230.721V292.721M296.654 199.721L350.396 230.721M350.396 230.721L404.155 199.721M350.396 230.721V292.721M404.155 199.721L457.897 230.721M457.897 230.721L511.656 199.721M457.897 230.721V292.721M511.656 199.721L565.398 230.721M565.398 230.721L619.157 199.721M565.398 230.721V292.721M619.157 199.721L672.898 230.721M-25.8484 323.721L27.9112 292.721M-25.8484 323.721V385.721M27.9112 292.721L81.6525 323.721M81.6525 323.721L135.412 292.721M81.6525 323.721V385.721M135.412 292.721L189.153 323.721M189.153 323.721L242.895 292.721M189.153 323.721V385.721M242.895 292.721L296.654 323.721M296.654 323.721L350.396 292.721M296.654 323.721V385.721M350.396 292.721L404.155 323.721M404.155 323.721L457.897 292.721M404.155 323.721V385.721M457.897 292.721L511.656 323.721M511.656 323.721L565.398 292.721M511.656 323.721V385.721M565.398 292.721L619.157 323.721M619.157 323.721L672.898 292.721M619.157 323.721V385.721M-25.8484 385.721L27.9112 416.721M-25.8484 385.721L-79.5897 416.721V478.721L-25.8484 509.721M27.9112 416.721L81.6525 385.721M27.9112 416.721V478.721M81.6525 385.721L135.412 416.721M135.412 416.721L189.153 385.721M135.412 416.721V478.721M189.153 385.721L242.895 416.721M242.895 416.721L296.654 385.721M242.895 416.721V478.721M296.654 385.721L350.396 416.721M350.396 416.721L404.155 385.721M350.396 416.721V478.721M404.155 385.721L457.897 416.721M457.897 416.721L511.656 385.721M457.897 416.721V478.721M511.656 385.721L565.398 416.721M565.398 416.721L619.157 385.721M565.398 416.721V478.721M619.157 385.721L672.898 416.721M-25.8484 509.721L27.9112 478.721M-25.8484 509.721V571.721M27.9112 478.721L81.6525 509.721M81.6525 509.721L135.412 478.721M81.6525 509.721V571.721M135.412 478.721L189.153 509.721M189.153 509.721L242.895 478.721M189.153 509.721V571.721M242.895 478.721L296.654 509.721M296.654 509.721L350.396 478.721M296.654 509.721V571.721M350.396 478.721L404.155 509.721M404.155 509.721L457.897 478.721M404.155 509.721V571.721M457.897 478.721L511.656 509.721M511.656 509.721L565.398 478.721M511.656 509.721V571.721M565.398 478.721L619.157 509.721M619.157 509.721L672.898 478.721M619.157 509.721V571.721M-25.8484 571.721L27.9112 602.721M-25.8484 571.721L-79.5897 602.721V664.721L-25.8484 695.721M27.9112 602.721L81.6525 571.721M27.9112 602.721V664.721M81.6525 571.721L135.412 602.721M135.412 602.721L189.153 571.721M135.412 602.721V664.721M189.153 571.721L242.895 602.721M242.895 602.721L296.654 571.721M242.895 602.721V664.721M296.654 571.721L350.396 602.721M350.396 602.721L404.155 571.721M350.396 602.721V664.721M404.155 571.721L457.897 602.721M457.897 602.721L511.656 571.721M457.897 602.721V664.721M511.656 571.721L565.398 602.721M565.398 602.721L619.157 571.721M565.398 602.721V664.721M619.157 571.721L672.898 602.721M-25.8484 695.721L27.9112 664.721M-25.8484 695.721V757.721M27.9112 664.721L81.6525 695.721M81.6525 695.721L135.412 664.721M81.6525 695.721V757.721M135.412 664.721L189.153 695.721M189.153 695.721L242.895 664.721M189.153 695.721V757.721M242.895 664.721L296.654 695.721M296.654 695.721L350.396 664.721M296.654 695.721V757.721M350.396 664.721L404.155 695.721M404.155 695.721L457.897 664.721M404.155 695.721V757.721M457.897 664.721L511.656 695.721M511.656 695.721L565.398 664.721M511.656 695.721V757.721M565.398 664.721L619.157 695.721M619.157 695.721L672.898 664.721M619.157 695.721V757.721M-25.8484 757.721L27.9112 788.721M-25.8484 757.721L-79.5897 788.721V850.721L-25.8484 881.721M27.9112 788.721L81.6525 757.721M27.9112 788.721V850.721L81.6525 881.721M81.6525 757.721L135.412 788.721M135.412 788.721L189.153 757.721M135.412 788.721V850.721L189.153 881.721M189.153 757.721L242.895 788.721M242.895 788.721L296.654 757.721M242.895 788.721V850.721L296.654 881.721M296.654 757.721L350.396 788.721M350.396 788.721L404.155 757.721M350.396 788.721V850.721L404.155 881.721M404.155 757.721L457.897 788.721M457.897 788.721L511.656 757.721M457.897 788.721V850.721L511.656 881.721M511.656 757.721L565.398 788.721M565.398 788.721L619.157 757.721M565.398 788.721V850.721L619.157 881.721M619.157 757.721L672.898 788.721" stroke="url(#paint0_linear_51_201)" stroke-width="1.6" stroke-linecap="round" stroke-linejoin="round"/>
</g>
<g filter="url(#filter0_di_51_201)">
<circle cx="269.671" cy="293.681" r="140.8" transform="rotate(21.3703 269.671 293.681)" fill="#FEB299"/>
</g>
<path d="M502.13 64C508.49 83.6614 510.751 108.78 511.554 141.999C507.89 143.133 504.042 143.726 500.127 143.718L207.533 143.1C179.692 143.041 156.907 165.24 156.24 193.073L155.825 210.355C138.346 233.813 128 262.898 128 294.4C128 326.43 138.697 355.961 156.711 379.618L155.083 511.798C115.366 511.263 86.3151 509.31 64.1726 502.186L69.8777 177.178C70.9807 114.353 122.225 64.0001 185.059 64H502.13Z" fill="#FEF7F3"/>
<path d="M154.802 68.5341L167.853 188.719" stroke="url(#paint1_linear_51_201)" stroke-width="25.6" stroke-linecap="round"/>
<path d="M24.2548 268.97L105.933 260.615" stroke="url(#paint2_linear_51_201)" stroke-width="25.6" stroke-linecap="round"/>
<path d="M31.0768 194.156L142.903 228.968" stroke="url(#paint3_linear_51_201)" stroke-width="25.6" stroke-linecap="round"/>
<path d="M67.2461 104.97L145.062 208.362" stroke="url(#paint4_linear_51_201)" stroke-width="25.6" stroke-linecap="round"/>
<path d="M356.364 182.967C387.289 206.975 405.464 241.316 409.807 277.338L382.775 275.19C360.672 273.433 348.268 250.119 336.295 231.457C330.006 221.228 320.11 213.272 306.61 207.59C293.11 201.909 281.695 200.185 272.367 202.42C263.209 204.253 256.765 209.598 253.038 218.455C248.971 228.117 249.672 236.942 255.139 244.93C260.776 252.515 269.461 260.199 281.195 267.981L295.674 277.628C314.981 290.493 331.632 303.898 345.627 317.845C360.167 331.546 369.686 346.689 374.183 363.273C376.38 370.39 377.26 377.942 376.829 385.93C328.258 442.568 243.255 451.656 183.677 405.403C154.353 382.637 136.491 350.58 131.018 316.609L153.833 319.535C174.634 322.202 186.451 342.794 191.478 363.155C194.464 373.89 199.696 382.963 207.171 390.374C215.191 397.541 224.639 403.412 235.514 407.989C252.015 414.934 265.473 417.043 275.89 414.319C286.476 411.191 293.718 404.998 297.615 395.738C301.512 386.479 300.728 377.854 295.261 369.867C289.963 361.476 279.741 352.199 264.596 342.034L250.116 332.385C232.31 320.153 216.784 307.22 203.539 293.59C190.463 279.556 181.676 264.248 177.178 247.664C172.68 231.079 174.582 212.924 182.885 193.196C185.185 187.73 187.729 182.645 190.511 177.94C239.652 144.312 306.805 144.492 356.364 182.967Z" fill="url(#paint5_linear_51_201)"/>
<defs>
<filter id="filter0_di_51_201" x="78.9464" y="133.921" width="381.45" height="381.45" filterUnits="userSpaceOnUse" color-interpolation-filters="sRGB">
<feFlood flood-opacity="0" result="BackgroundImageFix"/>
<feColorMatrix in="SourceAlpha" type="matrix" values="0 0 0 0 0 0 0 0 0 0 0 0 0 0 0 0 0 0 127 0" result="hardAlpha"/>
<feMorphology radius="29.2441" operator="erode" in="SourceAlpha" result="effect1_dropShadow_51_201"/>
<feOffset dy="30.9644"/>
<feGaussianBlur stdDeviation="39.5656"/>
<feComposite in2="hardAlpha" operator="out"/>
<feColorMatrix type="matrix" values="0 0 0 0 0 0 0 0 0 0 0 0 0 0 0 0 0 0 0.25 0"/>
<feBlend mode="normal" in2="BackgroundImageFix" result="effect1_dropShadow_51_201"/>
<feBlend mode="normal" in="SourceGraphic" in2="effect1_dropShadow_51_201" result="shape"/>
<feColorMatrix in="SourceAlpha" type="matrix" values="0 0 0 0 0 0 0 0 0 0 0 0 0 0 0 0 0 0 127 0" result="hardAlpha"/>
<feOffset dy="6.88098"/>
<feGaussianBlur stdDeviation="12.3858"/>
<feComposite in2="hardAlpha" operator="arithmetic" k2="-1" k3="1"/>
<feColorMatrix type="matrix" values="0 0 0 0 1 0 0 0 0 1 0 0 0 0 1 0 0 0 1 0"/>
<feBlend mode="normal" in2="shape" result="effect2_innerShadow_51_201"/>
</filter>
<linearGradient id="paint0_linear_51_201" x1="-1154.36" y1="40.5162" x2="-1124.16" y2="845.769" gradientUnits="userSpaceOnUse">
<stop stop-color="#FEB299"/>
<stop offset="1" stop-color="#FEB299" stop-opacity="0"/>
</linearGradient>
<linearGradient id="paint1_linear_51_201" x1="136.161" y1="72.2442" x2="166.843" y2="174.711" gradientUnits="userSpaceOnUse">
<stop stop-color="#FEB299"/>
<stop offset="1" stop-color="#FEB299" stop-opacity="0"/>
</linearGradient>
<linearGradient id="paint2_linear_51_201" x1="16.1501" y1="273.601" x2="116.301" y2="260.615" gradientUnits="userSpaceOnUse">
<stop stop-color="#FEB299"/>
<stop offset="1" stop-color="#FEB299" stop-opacity="0"/>
</linearGradient>
<linearGradient id="paint3_linear_51_201" x1="41.6132" y1="157.913" x2="108.01" y2="213.389" gradientUnits="userSpaceOnUse">
<stop stop-color="#FEB299"/>
<stop offset="1" stop-color="#FEB299" stop-opacity="0"/>
</linearGradient>
<linearGradient id="paint4_linear_51_201" x1="69.3489" y1="126.456" x2="135.746" y2="181.933" gradientUnits="userSpaceOnUse">
<stop stop-color="#FEB299"/>
<stop offset="1" stop-color="#FEB299" stop-opacity="0"/>
</linearGradient>
<linearGradient id="paint5_linear_51_201" x1="358.947" y1="184.972" x2="177.801" y2="416.117" gradientUnits="userSpaceOnUse">
<stop stop-color="#C2410C"/>
<stop offset="1" stop-color="#C2410C" stop-opacity="0.25"/>
</linearGradient>
<clipPath id="clip0_51_201">
<path d="M113.79 128H510.59V396.8C510.59 460.423 459.013 512 395.39 512H113.79V128Z" fill="white"/>
</clipPath>
</defs>
</svg>
