<svg width="512" height="512" viewBox="0 0 297.632 297.632" xmlns="http://www.w3.org/2000/svg">
  <defs>
    <clipPath id="clip_k"><path d="M 0 119.053 C 0 62.931 0 34.87 17.435 17.435 C 34.87 0 62.931 0 119.053 0 L 178.579 0 C 234.701 0 262.762 0 280.197 17.435 C 297.632 34.87 297.632 62.931 297.632 119.053 L 297.632 178.579 C 297.632 234.701 297.632 262.762 280.197 280.197 C 262.762 297.632 234.701 297.632 178.579 297.632 L 119.053 297.632 C 62.931 297.632 34.87 297.632 17.435 280.197 C 0 262.762 0 234.701 0 178.579 L 0 119.053 Z"></path></clipPath>
    <clipPath id="ballclip_k"><circle cx="157.2" cy="171.1" r="82.075"></circle></clipPath>
    <linearGradient id="sw_k" x1="0" y1="0" x2="0.3" y2="1"><stop offset="0" stop-color="#3A3A3A"></stop><stop offset="1" stop-color="#101010"></stop></linearGradient>
    <radialGradient id="hl_k" cx="0.32" cy="0.26" r="0.85"><stop offset="0" stop-color="#FFFFFF" stop-opacity="0.85"></stop><stop offset="0.4" stop-color="#FFFFFF" stop-opacity="0"></stop></radialGradient>
    <pattern id="grid_k" width="34" height="29.45" patternUnits="userSpaceOnUse" patternTransform="translate(6,6)"><path d="M 0 29.45 L 17 0 L 34 29.45 M 17 0 L 17 29.45 M -17 29.45 L 0 0 M 34 0 L 51 29.45" stroke="#C2410C" stroke-opacity="0.16" stroke-width="1.4" fill="none"></path></pattern>
  </defs>
  <g clip-path="url(#clip_k)">
    <path d="M 0 119.053 C 0 62.931 0 34.87 17.435 17.435 C 34.87 0 62.931 0 119.053 0 L 178.579 0 C 234.701 0 262.762 0 280.197 17.435 C 297.632 34.87 297.632 62.931 297.632 119.053 L 297.632 178.579 C 297.632 234.701 297.632 262.762 280.197 280.197 C 262.762 297.632 234.701 297.632 178.579 297.632 L 119.053 297.632 C 62.931 297.632 34.87 297.632 17.435 280.197 C 0 262.762 0 234.701 0 178.579 L 0 119.053 Z" fill="#F5845E"></path>
    <rect width="297.632" height="297.632" fill="url(#grid_k)"></rect>
    <g transform="translate(37.3,37.2)"><path d="M 254.589 0 C 258.286 11.429 259.601 26.031 260.068 45.342 C 257.938 46.001 255.701 46.346 253.426 46.341 L 83.337 45.981 C 67.153 45.948 53.907 58.853 53.52 75.032 L 53.278 85.078 C 43.118 98.714 37.104 115.622 37.104 133.935 C 37.104 152.554 43.322 169.72 53.793 183.473 L 52.847 260.311 C 29.759 260 12.872 258.863 0 254.722 L 3.316 65.792 C 3.958 29.271 33.747 0 70.273 0 L 254.589 0 Z" fill="#FEF7F3"></path></g>
    <ellipse cx="157.2" cy="247.175" rx="70.5845" ry="14" fill="#000" opacity="0.16"></ellipse>
    <circle cx="157.2" cy="171.1" r="82.075" fill="#FEB299"></circle>
    <g clip-path="url(#ballclip_k)"><g transform="matrix(0.79,0.613,-0.613,0.79,145.99,58.722)"><path d="M 77.947 0 C 100.705 0 121.293 9.289 136.128 24.281 L 122.95 32.932 C 112.175 40.004 98.168 33.721 86.018 29.42 C 79.483 26.965 72.103 26.839 63.879 29.043 C 55.654 31.247 49.799 34.524 46.313 38.876 C 42.76 42.982 41.708 47.733 43.153 53.129 C 44.731 59.015 48.198 62.818 53.556 64.537 C 58.848 66.011 65.575 66.443 73.736 65.833 L 83.825 65.102 C 97.276 64.126 109.701 64.346 121.099 65.761 C 132.659 66.869 142.428 70.429 150.405 76.44 C 153.95 78.925 157.048 82.079 159.697 85.9 C 157.586 129.222 121.793 163.698 77.947 163.698 C 56.367 163.698 36.736 155.346 22.113 141.697 L 33.634 134.908 C 44.136 128.718 56.902 133.961 66.469 141.518 C 71.667 145.382 77.303 147.684 83.378 148.422 C 89.615 148.854 96.047 148.181 102.672 146.406 C 112.724 143.713 119.657 139.883 123.469 134.919 C 127.215 129.709 128.332 124.284 126.82 118.643 C 125.309 113.002 121.874 109.321 116.517 107.603 C 111.093 105.638 103.092 105.023 92.514 105.754 L 82.426 106.485 C 69.889 107.216 58.149 106.813 47.208 105.275 C 36.201 103.493 26.71 99.596 18.732 93.584 C 10.755 87.572 5.156 78.557 1.936 66.539 C 1.043 63.208 0.4 59.966 0 56.813 C 10.577 23.855 41.476 0 77.947 0 Z" fill="url(#sw_k)"></path></g></g>
    <circle cx="157.2" cy="171.1" r="82.075" fill="url(#hl_k)"></circle>
    <circle cx="157.2" cy="171.1" r="82.075" fill="none" stroke="#fff" stroke-opacity="0.25" stroke-width="1.5"></circle>
  </g>
</svg>