<svg width="512" height="512" viewBox="0 0 512 512" fill="none" xmlns="http://www.w3.org/2000/svg">
<path d="M0 204.8C0 108.256 0 59.9845 29.9923 29.9923C59.9845 0 108.256 0 204.8 0H307.2C403.744 0 452.015 0 482.008 29.9923C512 59.9845 512 108.256 512 204.8V307.2C512 403.744 512 452.015 482.008 482.008C452.015 512 403.744 512 307.2 512H204.8C108.256 512 59.9845 512 29.9923 482.008C0 452.015 0 403.744 0 307.2V204.8Z" fill="#F5845E"/>
<g clip-path="url(#clip0_51_202)">
<path d="M-25.494 14.0001L-79.2354 45.0001V107L-25.494 138M-25.494 138L28.2656 107M-25.494 138V200M82.0069 14.0001L28.2656 45.0001V107M28.2656 107L82.0069 138M82.0069 138L135.766 107M82.0069 138V200M189.508 14.0001L135.766 45.0001V107M135.766 107L189.508 138M189.508 138L243.249 107M189.508 138V200M297.009 14.0001L243.249 45.0001V107M243.249 107L297.009 138M297.009 138L350.75 107M297.009 138V200M404.51 14.0001L350.75 45.0001V107M350.75 107L404.51 138M404.51 138L458.251 107M404.51 138V200M512.011 14.0001L458.251 45.0001V107M458.251 107L512.011 138M512.011 138L565.752 107M512.011 138V200M619.511 14.0001L565.752 45.0001V107M565.752 107L619.511 138M619.511 138L673.253 107M619.511 138V200M-25.494 200L28.2656 231M-25.494 200L-79.2354 231V293L-25.494 324M28.2656 231L82.0069 200M28.2656 231V293M82.0069 200L135.766 231M135.766 231L189.508 200M135.766 231V293M189.508 200L243.249 231M243.249 231L297.009 200M243.249 231V293M297.009 200L350.75 231M350.75 231L404.51 200M350.75 231V293M404.51 200L458.251 231M458.251 231L512.011 200M458.251 231V293M512.011 200L565.752 231M565.752 231L619.511 200M565.752 231V293M619.511 200L673.253 231M-25.494 324L28.2656 293M-25.494 324V386M28.2656 293L82.0069 324M82.0069 324L135.766 293M82.0069 324V386M135.766 293L189.508 324M189.508 324L243.249 293M189.508 324V386M243.249 293L297.009 324M297.009 324L350.75 293M297.009 324V386M350.75 293L404.51 324M404.51 324L458.251 293M404.51 324V386M458.251 293L512.011 324M512.011 324L565.752 293M512.011 324V386M565.752 293L619.511 324M619.511 324L673.253 293M619.511 324V386M-25.494 386L28.2656 417M-25.494 386L-79.2354 417V479L-25.494 510M28.2656 417L82.0069 386M28.2656 417V479M82.0069 386L135.766 417M135.766 417L189.508 386M135.766 417V479M189.508 386L243.249 417M243.249 417L297.009 386M243.249 417V479M297.009 386L350.75 417M350.75 417L404.51 386M350.75 417V479M404.51 386L458.251 417M458.251 417L512.011 386M458.251 417V479M512.011 386L565.752 417M565.752 417L619.511 386M565.752 417V479M619.511 386L673.253 417M-25.494 510L28.2656 479M-25.494 510V572M28.2656 479L82.0069 510M82.0069 510L135.766 479M82.0069 510V572M135.766 479L189.508 510M189.508 510L243.249 479M189.508 510V572M243.249 479L297.009 510M297.009 510L350.75 479M297.009 510V572M350.75 479L404.51 510M404.51 510L458.251 479M404.51 510V572M458.251 479L512.011 510M512.011 510L565.752 479M512.011 510V572M565.752 479L619.511 510M619.511 510L673.253 479M619.511 510V572M-25.494 572L28.2656 603M-25.494 572L-79.2354 603V665L-25.494 696M28.2656 603L82.0069 572M28.2656 603V665M82.0069 572L135.766 603M135.766 603L189.508 572M135.766 603V665M189.508 572L243.249 603M243.249 603L297.009 572M243.249 603V665M297.009 572L350.75 603M350.75 603L404.51 572M350.75 603V665M404.51 572L458.251 603M458.251 603L512.011 572M458.251 603V665M512.011 572L565.752 603M565.752 603L619.511 572M565.752 603V665M619.511 572L673.253 603M-25.494 696L28.2656 665M-25.494 696V758M28.2656 665L82.0069 696M82.0069 696L135.766 665M82.0069 696V758M135.766 665L189.508 696M189.508 696L243.249 665M189.508 696V758M243.249 665L297.009 696M297.009 696L350.75 665M297.009 696V758M350.75 665L404.51 696M404.51 696L458.251 665M404.51 696V758M458.251 665L512.011 696M512.011 696L565.752 665M512.011 696V758M565.752 665L619.511 696M619.511 696L673.253 665M619.511 696V758M-25.494 758L28.2656 789M-25.494 758L-79.2354 789V851L-25.494 882M28.2656 789L82.0069 758M28.2656 789V851L82.0069 882M82.0069 758L135.766 789M135.766 789L189.508 758M135.766 789V851L189.508 882M189.508 758L243.249 789M243.249 789L297.009 758M243.249 789V851L297.009 882M297.009 758L350.75 789M350.75 789L404.51 758M350.75 789V851L404.51 882M404.51 758L458.251 789M458.251 789L512.011 758M458.251 789V851L512.011 882M512.011 758L565.752 789M565.752 789L619.511 758M565.752 789V851L619.511 882M619.511 758L673.253 789" stroke="url(#paint0_linear_51_202)" stroke-width="1.6" stroke-linecap="round" stroke-linejoin="round"/>
</g>
<circle cx="269.671" cy="293.681" r="140.8" transform="rotate(21.3703 269.671 293.681)" fill="#FEB299"/>
<path d="M356.364 182.967C387.289 206.975 405.464 241.316 409.807 277.338L382.775 275.19C360.672 273.433 348.268 250.119 336.295 231.457C330.006 221.228 320.111 213.272 306.61 207.59C293.11 201.909 281.695 200.185 272.367 202.42C263.209 204.253 256.765 209.598 253.038 218.455C248.971 228.117 249.672 236.942 255.139 244.93C260.776 252.515 269.461 260.199 281.195 267.981L295.674 277.628C314.981 290.493 331.632 303.898 345.627 317.845C360.167 331.546 369.686 346.689 374.184 363.273C376.38 370.39 377.26 377.942 376.829 385.93C328.258 442.568 243.255 451.656 183.677 405.403C154.353 382.637 136.491 350.58 131.018 316.609L153.833 319.535C174.634 322.202 186.451 342.794 191.478 363.155C194.464 373.89 199.696 382.963 207.171 390.374C215.191 397.541 224.639 403.412 235.514 407.989C252.015 414.934 265.473 417.043 275.89 414.319C286.477 411.191 293.718 404.998 297.615 395.738C301.512 386.479 300.728 377.854 295.261 369.867C289.963 361.476 279.741 352.199 264.596 342.034L250.116 332.385C232.31 320.153 216.784 307.22 203.539 293.59C190.463 279.556 181.676 264.248 177.178 247.664C172.68 231.079 174.582 212.924 182.885 193.196C185.185 187.73 187.729 182.645 190.512 177.94C239.652 144.312 306.805 144.492 356.364 182.967Z" fill="url(#paint1_linear_51_202)"/>
<path d="M502.13 64C508.49 83.6614 510.751 108.78 511.555 141.999C507.89 143.133 504.042 143.726 500.127 143.718L207.533 143.1C179.692 143.041 156.907 165.24 156.24 193.073L155.825 210.354C138.346 233.811 128 262.898 128 294.4C128 326.43 138.697 355.962 156.711 379.619L155.083 511.798C115.366 511.263 86.3151 509.31 64.1727 502.186L69.8777 177.178C70.9807 114.353 122.225 64.0002 185.059 64H502.13Z" fill="#FEF7F3"/>
<path d="M154.802 68.5341L167.853 188.719" stroke="url(#paint2_linear_51_202)" stroke-width="25.6" stroke-linecap="round"/>
<path d="M24.2549 268.97L105.933 260.615" stroke="url(#paint3_linear_51_202)" stroke-width="25.6" stroke-linecap="round"/>
<path d="M31.0766 194.156L142.903 228.968" stroke="url(#paint4_linear_51_202)" stroke-width="25.6" stroke-linecap="round"/>
<path d="M67.246 104.97L145.062 208.362" stroke="url(#paint5_linear_51_202)" stroke-width="25.6" stroke-linecap="round"/>
<defs>
<linearGradient id="paint0_linear_51_202" x1="-1154.01" y1="40.7954" x2="-1123.8" y2="846.048" gradientUnits="userSpaceOnUse">
<stop stop-color="#FEB299"/>
<stop offset="1" stop-color="#FEB299" stop-opacity="0"/>
</linearGradient>
<linearGradient id="paint1_linear_51_202" x1="358.947" y1="184.972" x2="177.801" y2="416.117" gradientUnits="userSpaceOnUse">
<stop stop-color="#06140C"/>
<stop offset="1" stop-color="#0B1B30" stop-opacity="0.25"/>
</linearGradient>
<linearGradient id="paint2_linear_51_202" x1="136.161" y1="72.2442" x2="166.843" y2="174.711" gradientUnits="userSpaceOnUse">
<stop stop-color="#FEB299"/>
<stop offset="1" stop-color="#FEB299" stop-opacity="0"/>
</linearGradient>
<linearGradient id="paint3_linear_51_202" x1="16.1502" y1="273.601" x2="116.301" y2="260.615" gradientUnits="userSpaceOnUse">
<stop stop-color="#FEB299"/>
<stop offset="1" stop-color="#FEB299" stop-opacity="0"/>
</linearGradient>
<linearGradient id="paint4_linear_51_202" x1="41.613" y1="157.913" x2="108.01" y2="213.389" gradientUnits="userSpaceOnUse">
<stop stop-color="#FEB299"/>
<stop offset="1" stop-color="#FEB299" stop-opacity="0"/>
</linearGradient>
<linearGradient id="paint5_linear_51_202" x1="69.3488" y1="126.456" x2="135.746" y2="181.933" gradientUnits="userSpaceOnUse">
<stop stop-color="#FEB299"/>
<stop offset="1" stop-color="#FEB299" stop-opacity="0"/>
</linearGradient>
<clipPath id="clip0_51_202">
<path d="M113.79 128H510.59V396.8C510.59 460.423 459.013 512 395.39 512H113.79V128Z" fill="white"/>
</clipPath>
</defs>
</svg>
