<svg width="350" height="350" viewBox="0 0 175 175" xmlns="http://www.w3.org/2000/svg"><defs><clipPath id="bc"><circle cx="87.5" cy="90" r="82"></circle></clipPath><linearGradient id="sg" x1="0" y1="0" x2="0.3" y2="1"><stop offset="0" stop-color="#C2410C"></stop><stop offset="1" stop-color="#9A330A"></stop></linearGradient><radialGradient id="bh" cx="0.32" cy="0.26" r="0.85"><stop offset="0" stop-color="#fff" stop-opacity="0.85"></stop><stop offset="0.42" stop-color="#fff" stop-opacity="0"></stop></radialGradient></defs><ellipse cx="87.5" cy="166" rx="70" ry="12" fill="#000" opacity="0.14"></ellipse><circle cx="87.5" cy="90" r="82" fill="#FEB299"></circle><g clip-path="url(#bc)"><g transform="translate(8,8) scale(1.02)"><path d="M 77.947 0 C 100.705 0 121.293 9.289 136.128 24.281 L 122.95 32.932 C 112.175 40.004 98.168 33.721 86.018 29.42 C 79.483 26.965 72.103 26.839 63.879 29.043 C 55.654 31.247 49.799 34.524 46.313 38.876 C 42.76 42.982 41.708 47.733 43.153 53.129 C 44.731 59.015 48.198 62.818 53.556 64.537 C 58.848 66.011 65.575 66.443 73.736 65.833 L 83.825 65.102 C 97.276 64.126 109.701 64.346 121.099 65.761 C 132.659 66.869 142.428 70.429 150.405 76.44 C 153.95 78.925 157.048 82.079 159.697 85.9 C 157.586 129.222 121.793 163.698 77.947 163.698 C 56.367 163.698 36.736 155.346 22.113 141.697 L 33.634 134.908 C 44.136 128.718 56.902 133.961 66.469 141.518 C 71.667 145.382 77.303 147.684 83.378 148.422 C 89.615 148.854 96.047 148.181 102.672 146.406 C 112.724 143.713 119.657 139.883 123.469 134.919 C 127.215 129.709 128.332 124.284 126.82 118.643 C 125.309 113.002 121.874 109.321 116.517 107.603 C 111.093 105.638 103.092 105.023 92.514 105.754 L 82.426 106.485 C 69.889 107.216 58.149 106.813 47.208 105.275 C 36.201 103.493 26.71 99.596 18.732 93.584 C 10.755 87.572 5.156 78.557 1.936 66.539 C 1.043 63.208 0.4 59.966 0 56.813 C 10.577 23.855 41.476 0 77.947 0 Z" fill="url(#sg)"></path></g></g><circle cx="87.5" cy="90" r="82" fill="url(#bh)"></circle></svg>