<svg width="227" height="242" viewBox="0 0 227 242" fill="none" xmlns="http://www.w3.org/2000/svg">
<g filter="url(#filter0_di_5_122)">
<circle cx="111.561" cy="112.16" r="81.8489" transform="rotate(21.3703 111.561 112.16)" fill="#FEB299"/>
</g>
<path d="M161.956 47.8002C179.933 61.756 190.498 81.7187 193.023 102.658L177.309 101.41C164.46 100.389 157.25 86.8365 150.29 75.9879C146.634 70.0415 140.881 65.4168 133.033 62.1139C125.186 58.8111 118.55 57.8094 113.128 59.1086C107.804 60.1739 104.059 63.281 101.892 68.4297C99.5281 74.0466 99.9348 79.1767 103.113 83.8201C106.389 88.2294 111.438 92.6958 118.259 97.2193L126.677 102.828C137.9 110.307 147.579 118.099 155.715 126.207C164.167 134.171 169.7 142.974 172.315 152.614C173.591 156.751 174.104 161.141 173.853 165.785C145.619 198.71 96.2039 203.993 61.5704 177.105C44.5239 163.871 34.1402 145.235 30.9591 125.487L44.2224 127.189C56.3145 128.74 63.1833 140.71 66.1056 152.546C67.8417 158.786 70.8827 164.06 75.2282 168.369C79.8901 172.535 85.3826 175.948 91.7045 178.608C101.297 182.645 109.121 183.872 115.176 182.288C121.33 180.47 125.54 176.869 127.805 171.487C130.07 166.104 129.614 161.091 126.436 156.447C123.357 151.57 117.414 146.177 108.61 140.268L100.193 134.659C89.842 127.548 80.8162 120.03 73.1166 112.107C65.5156 103.949 60.408 95.0497 57.7934 85.4093C55.1787 75.7687 56.2842 65.2139 61.1105 53.7461C62.448 50.568 63.9278 47.6123 65.5457 44.8769C94.1117 25.3296 133.147 25.4346 161.956 47.8002Z" fill="url(#paint0_linear_5_122)"/>
<defs>
<filter id="filter0_di_5_122" x="0.689766" y="19.2888" width="221.742" height="221.742" filterUnits="userSpaceOnUse" color-interpolation-filters="sRGB">
<feFlood flood-opacity="0" result="BackgroundImageFix"/>
<feColorMatrix in="SourceAlpha" type="matrix" values="0 0 0 0 0 0 0 0 0 0 0 0 0 0 0 0 0 0 127 0" result="hardAlpha"/>
<feMorphology radius="17" operator="erode" in="SourceAlpha" result="effect1_dropShadow_5_122"/>
<feOffset dy="18"/>
<feGaussianBlur stdDeviation="23"/>
<feComposite in2="hardAlpha" operator="out"/>
<feColorMatrix type="matrix" values="0 0 0 0 0 0 0 0 0 0 0 0 0 0 0 0 0 0 0.25 0"/>
<feBlend mode="normal" in2="BackgroundImageFix" result="effect1_dropShadow_5_122"/>
<feBlend mode="normal" in="SourceGraphic" in2="effect1_dropShadow_5_122" result="shape"/>
<feColorMatrix in="SourceAlpha" type="matrix" values="0 0 0 0 0 0 0 0 0 0 0 0 0 0 0 0 0 0 127 0" result="hardAlpha"/>
<feOffset dy="4"/>
<feGaussianBlur stdDeviation="7.2"/>
<feComposite in2="hardAlpha" operator="arithmetic" k2="-1" k3="1"/>
<feColorMatrix type="matrix" values="0 0 0 0 1 0 0 0 0 1 0 0 0 0 1 0 0 0 1 0"/>
<feBlend mode="normal" in2="shape" result="effect2_innerShadow_5_122"/>
</filter>
<linearGradient id="paint0_linear_5_122" x1="163.458" y1="48.9661" x2="58.1554" y2="183.334" gradientUnits="userSpaceOnUse">
<stop stop-color="#C2410C"/>
<stop offset="1" stop-color="#C2410C" stop-opacity="0.85"/>
</linearGradient>
</defs>
</svg>
